<?xml version="1.0" encoding="UTF-8"?><!DOCTYPE svg PUBLIC "-//W3C//DTD SVG 1.1//EN" "http://www.w3.org/Graphics/SVG/1.1/DTD/svg11.dtd"><svg xmlns="http://www.w3.org/2000/svg" xmlns:xlink="http://www.w3.org/1999/xlink" version="1.1" width="24" height="24" viewBox="0 0 24 24"><path d="M13,16.14H15V8.14H13M12,20.14C7.59,20.14 4,16.55 4,12.14C4,7.73 7.59,4.14 12,4.14C16.41,4.14 20,7.73 20,12.14C20,16.55 16.41,20.14 12,20.14M12,2.14A10,10 0 0,0 2,12.14A10,10 0 0,0 12,22.14A10,10 0 0,0 22,12.14C22,6.61 17.5,2.14 12,2.14M9,16.14H11V8.14H9V16.14Z" /></svg>